<svg class="snowflake" viewBox="-20 0 640 600" xmlns="http://www.w3.org/2000/svg" xmlns:xlink="http://www.w3.org/1999/xlink" style="background: rgb(51, 51, 51); color: white;" width="800px" height="800px">
      <defs>
        <path id="slice-shape" d="M130.1,300.5, 130.1,0, 0,75z"></path>

        <clipPath id="slice-clip-path">
          <use xlink:href="#slice-shape"></use>
        </clipPath>

        <symbol id="slice">
          <!-- Clipped slice content -->
          <g clip-path="url(#slice-clip-path)" id="target-group" stroke="currentColor" stroke-linecap="round" stroke-width="5"><path d=" M150.40833282470703,13.099998474121094 145.90833282470703,23.099998474121094 M152.90833282470703,13.099998474121094 128.40833282470703,58.599998474121094 M128.90833282470703,58.599998474121094 135.90833282470703,73.5999984741211 M129.90833282470703,57.599998474121094 129.90833282470703,57.599998474121094 M129.90833282470703,56.599998474121094 129.90833282470703,56.599998474121094 M128.90833282470703,58.099998474121094 131.40833282470703,64.5999984741211 M130.90833282470703,58.599998474121094 134.40833282470703,67.0999984741211 M128.90833282470703,67.0999984741211 133.90833282470703,166.0999984741211 M0.9083328247070312,75.5999984741211 3.4083328247070312,80.0999984741211 M3.4083328247070312,80.0999984741211 3.4083328247070312,80.5999984741211 M0.9083328247070312,73.0999984741211 8.408332824707031,80.0999984741211 M8.408332824707031,80.0999984741211 7.408332824707031,91.0999984741211 M9.408332824707031,91.0999984741211 128.40833282470703,293.0999984741211 M118.90833282470703,273.5999984741211 120.40833282470703,266.0999984741211 M120.40833282470703,266.0999984741211 128.40833282470703,273.0999984741211 M128.40833282470703,135.0999984741211 109.40833282470703,179.0999984741211 M109.40833282470703,179.0999984741211 54.40833282470703,168.5999984741211 M107.40833282470703,179.0999984741211 129.40833282470703,271.0999984741211 M24.40833282470703,113.0999984741211 25.90833282470703,79.5999984741211 M30.40833282470703,123.5999984741211 32.90833282470703,86.0999984741211 M33.90833282470703,129.0999984741211 33.90833282470703,130.0999984741211 M35.90833282470703,131.0999984741211 35.90833282470703,131.0999984741211 M34.90833282470703,132.5999984741211 39.90833282470703,90.0999984741211 M129.40833282470703,185.0999984741211 120.40833282470703,171.0999984741211 M88.40833282470703,221.0999984741211 176.90833282470703,218.5999984741211 M35.90833282470703,134.0999984741211 50.40833282470703,145.5999984741211 M51.40833282470703,146.0999984741211 57.90833282470703,172.5999984741211 M44.90833282470703,146.0999984741211 44.90833282470703,146.0999984741211 M44.90833282470703,146.0999984741211 48.90833282470703,150.5999984741211 M48.90833282470703,153.0999984741211 49.90833282470703,157.0999984741211"></path></g>
        </symbol>

        <symbol id="pair-slices">
          <g transform="translate(170)">
            <use xlink:href="#slice"></use>
            <!-- Mirrored slice to show symmetry -->
            <use xlink:href="#slice" transform="translate(260,0) scale(-1,1)"></use>
          </g>
        </symbol>
      </defs>

      <!-- Visible snowflake -->
      <g>
        <use xlink:href="#pair-slices" transform="rotate(30, 300, 300)"></use>
        <use xlink:href="#pair-slices" transform="rotate(90, 300, 300)"></use>
        <use xlink:href="#pair-slices" transform="rotate(150, 300, 300)"></use>
        <use xlink:href="#pair-slices" transform="rotate(210, 300, 300)"></use>
        <use xlink:href="#pair-slices" transform="rotate(270, 300, 300)"></use>
        <use xlink:href="#pair-slices" transform="rotate(330, 300, 300)"></use>
      </g>
    </svg>