<svg class="snowflake" viewBox="-20 0 640 600" xmlns="http://www.w3.org/2000/svg" xmlns:xlink="http://www.w3.org/1999/xlink" style="background: teal; color: white;" width="800px" height="800px">
      <defs>
        <path id="slice-shape" d="M130.1,300.5, 130.1,0, 0,75z"></path>

        <clipPath id="slice-clip-path">
          <use xlink:href="#slice-shape"></use>
        </clipPath>

        <symbol id="slice">
          <!-- Clipped slice content -->
          <g clip-path="url(#slice-clip-path)" id="target-group" stroke="currentColor" stroke-linecap="round" stroke-width="5"><path d=" M118.44166564941406,256.31666564941406 118.44166564941406,256.81666564941406 M118.44166564941406,256.81666564941406 108.94166564941406,276.81666564941406 M118.94166564941406,253.81666564941406 128.94166564941406,269.81666564941406 M128.44166564941406,273.31666564941406 121.44166564941406,287.31666564941406 M128.44166564941406,20.816665649414062 115.94166564941406,11.816665649414062 M129.94166564941406,22.316665649414062 132.44166564941406,267.31666564941406 M127.44166564941406,34.31666564941406 101.94166564941406,14.316665649414062 M126.44166564941406,50.81666564941406 89.44166564941406,19.316665649414062 M71.94166564941406,198.31666564941406 89.44166564941406,154.31666564941406 M89.44166564941406,154.31666564941406 126.94166564941406,193.31666564941406 M71.94166564941406,199.31666564941406 108.94166564941406,267.31666564941406 M127.44166564941406,209.31666564941406 114.94166564941406,195.81666564941406 M128.44166564941406,220.81666564941406 108.94166564941406,203.31666564941406 M129.44166564941406,231.31666564941406 102.44166564941406,209.81666564941406 M128.44166564941406,240.81666564941406 99.44166564941406,219.31666564941406 M126.44166564941406,52.31666564941406 93.94166564941406,83.81666564941406 M128.44166564941406,63.31666564941406 108.44166564941406,86.31666564941406 M128.44166564941406,76.81666564941406 118.94166564941406,89.81666564941406 M127.44166564941406,102.31666564941406 113.94166564941406,128.81666564941406 M113.94166564941406,129.31666564941406 129.44166564941406,166.31666564941406 M88.44166564941406,151.81666564941406 30.941665649414062,40.81666564941406 M36.94166564941406,53.81666564941406 37.44166564941406,71.81666564941406 M38.44166564941406,71.81666564941406 46.94166564941406,79.31666564941406 M38.94166564941406,53.81666564941406 51.44166564941406,64.81666564941406 M51.44166564941406,64.81666564941406 50.94166564941406,77.31666564941406 M66.44166564941406,106.81666564941406 66.44166564941406,94.31666564941406 M64.94166564941406,105.81666564941406 51.94166564941406,103.81666564941406 M68.94166564941406,113.81666564941406 66.94166564941406,110.81666564941406 M68.94166564941406,115.81666564941406 56.94166564941406,114.31666564941406 M70.94166564941406,115.81666564941406 74.44166564941406,101.31666564941406 M76.44166564941406,126.31666564941406 62.44166564941406,125.81666564941406 M73.94166564941406,124.31666564941406 74.94166564941406,126.31666564941406 M76.94166564941406,127.31666564941406 81.94166564941406,109.81666564941406"></path></g>
        </symbol>

        <symbol id="pair-slices">
          <g transform="translate(170)">
            <use xlink:href="#slice"></use>
            <!-- Mirrored slice to show symmetry -->
            <use xlink:href="#slice" transform="translate(260,0) scale(-1,1)"></use>
          </g>
        </symbol>
      </defs>

      <!-- Visible snowflake -->
      <g>
        <use xlink:href="#pair-slices" transform="rotate(30, 300, 300)"></use>
        <use xlink:href="#pair-slices" transform="rotate(90, 300, 300)"></use>
        <use xlink:href="#pair-slices" transform="rotate(150, 300, 300)"></use>
        <use xlink:href="#pair-slices" transform="rotate(210, 300, 300)"></use>
        <use xlink:href="#pair-slices" transform="rotate(270, 300, 300)"></use>
        <use xlink:href="#pair-slices" transform="rotate(330, 300, 300)"></use>
      </g>
    </svg>