<svg class="snowflake" viewBox="-20 0 640 600" xmlns="http://www.w3.org/2000/svg" xmlns:xlink="http://www.w3.org/1999/xlink" style="background: rgb(51, 51, 51); color: white;" width="800px" height="800px">
      <defs>
        <path id="slice-shape" d="M130.1,300.5, 130.1,0, 0,75z"></path>

        <clipPath id="slice-clip-path">
          <use xlink:href="#slice-shape"></use>
        </clipPath>

        <symbol id="slice">
          <!-- Clipped slice content -->
          <g clip-path="url(#slice-clip-path)" id="target-group" stroke="currentColor" stroke-linecap="round" stroke-width="5"><path d=" M120.40833282470703,283.5999984741211 121.40833282470703,275.0999984741211 M121.90833282470703,273.5999984741211 128.40833282470703,281.0999984741211 M111.90833282470703,268.5999984741211 116.90833282470703,256.0999984741211 M116.90833282470703,255.0999984741211 130.40833282470703,268.5999984741211 M103.90833282470703,252.5999984741211 110.90833282470703,234.5999984741211 M128.90833282470703,214.5999984741211 100.90833282470703,198.0999984741211 M75.90833282470703,203.5999984741211 96.90833282470703,166.0999984741211 M96.90833282470703,166.5999984741211 128.90833282470703,189.0999984741211 M65.40833282470703,186.5999984741211 89.40833282470703,141.0999984741211 M90.90833282470703,141.5999984741211 127.90833282470703,166.0999984741211 M127.90833282470703,34.099998474121094 113.40833282470703,15.099998474121094 M128.40833282470703,45.599998474121094 97.90833282470703,17.099998474121094 M129.90833282470703,59.599998474121094 89.40833282470703,26.099998474121094 M128.90833282470703,72.5999984741211 112.40833282470703,102.0999984741211 M112.40833282470703,102.0999984741211 128.40833282470703,135.5999984741211 M128.40833282470703,35.599998474121094 127.90833282470703,159.5999984741211 M28.90833282470703,121.0999984741211 59.90833282470703,66.0999984741211 M28.90833282470703,121.5999984741211 63.40833282470703,181.0999984741211 M88.40833282470703,136.0999984741211 60.90833282470703,68.0999984741211 M99.40833282470703,197.5999984741211 101.40833282470703,251.5999984741211 M127.90833282470703,160.0999984741211 129.40833282470703,166.0999984741211 M86.90833282470703,134.0999984741211 90.90833282470703,141.5999984741211 M60.90833282470703,63.599998474121094 110.90833282470703,103.5999984741211 M62.40833282470703,64.0999984741211 169.40833282470703,58.599998474121094"></path></g>
        </symbol>

        <symbol id="pair-slices">
          <g transform="translate(170)">
            <use xlink:href="#slice"></use>
            <!-- Mirrored slice to show symmetry -->
            <use xlink:href="#slice" transform="translate(260,0) scale(-1,1)"></use>
          </g>
        </symbol>
      </defs>

      <!-- Visible snowflake -->
      <g>
        <use xlink:href="#pair-slices" transform="rotate(30, 300, 300)"></use>
        <use xlink:href="#pair-slices" transform="rotate(90, 300, 300)"></use>
        <use xlink:href="#pair-slices" transform="rotate(150, 300, 300)"></use>
        <use xlink:href="#pair-slices" transform="rotate(210, 300, 300)"></use>
        <use xlink:href="#pair-slices" transform="rotate(270, 300, 300)"></use>
        <use xlink:href="#pair-slices" transform="rotate(330, 300, 300)"></use>
      </g>
    </svg>