<svg class="snowflake" viewBox="-20 0 640 600" xmlns="http://www.w3.org/2000/svg" xmlns:xlink="http://www.w3.org/1999/xlink" style="background: rgb(51, 51, 51); color: white;" width="800px" height="800px">
      <defs>
        <path id="slice-shape" d="M130.1,300.5, 130.1,0, 0,75z"></path>

        <clipPath id="slice-clip-path">
          <use xlink:href="#slice-shape"></use>
        </clipPath>

        <symbol id="slice">
          <!-- Clipped slice content -->
          <g clip-path="url(#slice-clip-path)" id="target-group" stroke="currentColor" stroke-linecap="round" stroke-width="5"><path d=" M128.40833282470703,0.383331298828125 128.40833282470703,0.383331298828125 M128.40833282470703,0.383331298828125 123.40833282470703,7.383331298828125 M123.40833282470703,7.383331298828125 128.40833282470703,14.883331298828125 M128.40833282470703,23.383331298828125 113.90833282470703,8.883331298828125 M129.90833282470703,31.383331298828125 129.90833282470703,31.383331298828125 M129.40833282470703,31.383331298828125 129.90833282470703,30.383331298828125 M129.90833282470703,30.383331298828125 129.90833282470703,30.383331298828125 M129.90833282470703,30.383331298828125 129.90833282470703,30.383331298828125 M128.40833282470703,31.383331298828125 129.90833282470703,36.383331298828125 M129.90833282470703,36.383331298828125 129.90833282470703,27.883331298828125 M128.90833282470703,23.883331298828125 128.90833282470703,26.883331298828125 M129.90833282470703,33.383331298828125 128.90833282470703,33.383331298828125 M128.90833282470703,33.383331298828125 106.40833282470703,14.383331298828125 M129.40833282470703,38.383331298828125 116.40833282470703,50.383331298828125 M114.90833282470703,50.883331298828125 129.40833282470703,61.883331298828125 M128.90833282470703,71.38333129882812 89.40833282470703,47.383331298828125 M127.90833282470703,76.88333129882812 127.90833282470703,77.38333129882812 M127.90833282470703,77.38333129882812 83.90833282470703,57.383331298828125 M127.90833282470703,79.88333129882812 80.40833282470703,73.38333129882812 M128.90833282470703,80.88333129882812 99.90833282470703,118.38333129882812 M99.90833282470703,117.88333129882812 135.40833282470703,162.38333129882812 M129.40833282470703,1.383331298828125 127.90833282470703,299.3833312988281 M126.40833282470703,166.38333129882812 60.90833282470703,226.38333129882812 M126.90833282470703,261.3833312988281 111.90833282470703,268.3833312988281 M123.90833282470703,168.88333129882812 105.90833282470703,278.8833312988281"></path></g>
        </symbol>

        <symbol id="pair-slices">
          <g transform="translate(170)">
            <use xlink:href="#slice"></use>
            <!-- Mirrored slice to show symmetry -->
            <use xlink:href="#slice" transform="translate(260,0) scale(-1,1)"></use>
          </g>
        </symbol>
      </defs>

      <!-- Visible snowflake -->
      <g>
        <use xlink:href="#pair-slices" transform="rotate(30, 300, 300)"></use>
        <use xlink:href="#pair-slices" transform="rotate(90, 300, 300)"></use>
        <use xlink:href="#pair-slices" transform="rotate(150, 300, 300)"></use>
        <use xlink:href="#pair-slices" transform="rotate(210, 300, 300)"></use>
        <use xlink:href="#pair-slices" transform="rotate(270, 300, 300)"></use>
        <use xlink:href="#pair-slices" transform="rotate(330, 300, 300)"></use>
      </g>
    </svg>