<svg class="snowflake" viewBox="-20 0 640 600" xmlns="http://www.w3.org/2000/svg" xmlns:xlink="http://www.w3.org/1999/xlink" style="background: rgb(51, 51, 51); color: white;" width="800px" height="800px">
      <defs>
        <path id="slice-shape" d="M130.1,300.5, 130.1,0, 0,75z"></path>

        <clipPath id="slice-clip-path">
          <use xlink:href="#slice-shape"></use>
        </clipPath>

        <symbol id="slice">
          <!-- Clipped slice content -->
          <g clip-path="url(#slice-clip-path)" id="target-group" stroke="currentColor" stroke-linecap="round" stroke-width="5"><path d=" M77.90833282470703,68.88333129882812 127.90833282470703,1.883331298828125 M77.40833282470703,68.38333129882812 1.4083328247070312,77.88333129882812 M62.90833282470703,38.883331298828125 155.40833282470703,265.8833312988281 M73.90833282470703,68.88333129882812 50.40833282470703,50.883331298828125 M71.40833282470703,65.38333129882812 73.40833282470703,65.88333129882812 M73.40833282470703,62.883331298828125 74.40833282470703,65.88333129882812 M74.40833282470703,66.88333129882812 74.40833282470703,67.38333129882812 M73.90833282470703,66.88333129882812 79.90833282470703,67.38333129882812 M77.40833282470703,69.88333129882812 75.90833282470703,70.38333129882812 M74.40833282470703,66.38333129882812 74.40833282470703,33.883331298828125 M128.40833282470703,202.38333129882812 95.40833282470703,262.8833312988281 M113.40833282470703,273.3833312988281 145.90833282470703,268.3833312988281 M92.40833282470703,108.38333129882812 100.90833282470703,83.88333129882812 M92.40833282470703,108.38333129882812 62.90833282470703,104.88333129882812 M95.40833282470703,118.88333129882812 47.90833282470703,114.88333129882812 M95.40833282470703,116.38333129882812 114.90833282470703,72.38333129882812 M109.40833282470703,150.88333129882812 58.40833282470703,146.38333129882812 M106.40833282470703,147.88333129882812 123.90833282470703,105.88333129882812 M110.40833282470703,158.38333129882812 57.90833282470703,164.38333129882812 M109.40833282470703,158.88333129882812 133.40833282470703,121.38333129882812 M125.40833282470703,288.8833312988281 141.40833282470703,287.8833312988281 M126.90833282470703,205.38333129882812 130.40833282470703,267.8833312988281 M128.40833282470703,199.38333129882812 56.90833282470703,163.38333129882812 M56.90833282470703,163.38333129882812 46.40833282470703,164.38333129882812"></path></g>
        </symbol>

        <symbol id="pair-slices">
          <g transform="translate(170)">
            <use xlink:href="#slice"></use>
            <!-- Mirrored slice to show symmetry -->
            <use xlink:href="#slice" transform="translate(260,0) scale(-1,1)"></use>
          </g>
        </symbol>
      </defs>

      <!-- Visible snowflake -->
      <g>
        <use xlink:href="#pair-slices" transform="rotate(30, 300, 300)"></use>
        <use xlink:href="#pair-slices" transform="rotate(90, 300, 300)"></use>
        <use xlink:href="#pair-slices" transform="rotate(150, 300, 300)"></use>
        <use xlink:href="#pair-slices" transform="rotate(210, 300, 300)"></use>
        <use xlink:href="#pair-slices" transform="rotate(270, 300, 300)"></use>
        <use xlink:href="#pair-slices" transform="rotate(330, 300, 300)"></use>
      </g>
    </svg>