<svg class="snowflake" viewBox="-20 0 640 600" xmlns="http://www.w3.org/2000/svg" xmlns:xlink="http://www.w3.org/1999/xlink" style="background: rgb(51, 51, 51); color: white;" width="800px" height="800px">
      <defs>
        <path id="slice-shape" d="M130.1,300.5, 130.1,0, 0,75z"></path>

        <clipPath id="slice-clip-path">
          <use xlink:href="#slice-shape"></use>
        </clipPath>

        <symbol id="slice">
          <!-- Clipped slice content -->
          <g clip-path="url(#slice-clip-path)" id="target-group" stroke="currentColor" stroke-linecap="round" stroke-width="5"><path d=" M81.25,38.44166564941406 81.25,38.44166564941406 M76.25,37.94166564941406 76.25,37.94166564941406 M73.25,40.94166564941406 73.25,40.94166564941406 M70.25,41.44166564941406 70.25,41.44166564941406 M66.25,42.44166564941406 66.25,42.94166564941406 M63.25,44.44166564941406 62.75,44.94166564941406 M57.75,50.44166564941406 57.25,51.44166564941406 M57.25,51.44166564941406 56.25,57.44166564941406 M55.75,57.44166564941406 55.75,57.94166564941406 M51.75,58.44166564941406 51.75,59.44166564941406 M51.75,61.94166564941406 51.75,67.44166564941406 M50.75,70.94166564941406 50.75,71.44166564941406 M50.75,72.44166564941406 50.75,73.94166564941406 M53.25,80.44166564941406 53.75,82.94166564941406 M53.75,82.94166564941406 53.75,83.94166564941406 M55.75,96.94166564941406 57.75,99.94166564941406 M54.75,89.44166564941406 54.75,89.44166564941406 M60.75,104.44166564941406 60.75,104.44166564941406 M63.75,107.44166564941406 64.25,107.44166564941406 M65.75,109.94166564941406 68.25,111.44166564941406 M69.25,115.44166564941406 69.25,115.44166564941406 M71.75,117.94166564941406 71.75,117.94166564941406 M76.75,125.44166564941406 77.75,125.94166564941406 M79.75,126.94166564941406 81.25,128.44166564941406 M85.75,133.94166564941406 85.75,133.94166564941406 M90.75,136.44166564941406 91.75,136.94166564941406 M92.75,137.94166564941406 93.75,138.94166564941406 M95.75,140.44166564941406 95.75,141.94166564941406 M96.25,141.94166564941406 99.75,142.44166564941406 M100.25,143.94166564941406 101.25,144.94166564941406 M103.25,147.44166564941406 109.25,151.44166564941406 M111.25,152.94166564941406 114.75,154.94166564941406 M114.75,154.94166564941406 117.25,154.94166564941406 M118.25,155.44166564941406 122.25,160.94166564941406 M122.75,160.94166564941406 128.25,165.44166564941406 M128.25,165.44166564941406 128.75,165.94166564941406 M80.25,45.94166564941406 79.75,45.94166564941406 M76.75,47.94166564941406 76.75,48.94166564941406 M72.25,56.94166564941406 72.25,56.94166564941406 M71.25,62.44166564941406 71.25,63.44166564941406 M70.25,77.44166564941406 69.75,78.44166564941406 M70.25,69.44166564941406 70.25,69.44166564941406 M71.75,75.94166564941406 71.75,76.94166564941406 M74.75,86.44166564941406 74.75,86.44166564941406 M79.75,94.44166564941406 79.75,94.44166564941406 M82.25,102.44166564941406 82.25,102.44166564941406 M87.75,107.44166564941406 88.25,107.44166564941406 M92.75,112.44166564941406 93.25,112.94166564941406 M100.75,119.44166564941406 101.75,119.94166564941406 M110.25,123.44166564941406 111.25,123.44166564941406 M123.75,126.44166564941406 123.75,126.44166564941406 M129.75,127.44166564941406 129.75,127.44166564941406 M129.75,122.44166564941406 130.75,46.94166564941406 M128.25,77.94166564941406 132.75,72.44166564941406 M127.25,75.94166564941406 112.75,52.94166564941406 M130.25,91.94166564941406 102.25,60.44166564941406 M130.75,110.44166564941406 89.75,62.94166564941406 M130.75,167.94166564941406 130.75,186.94166564941406 M126.75,187.44166564941406 126.25,187.44166564941406 M122.25,187.44166564941406 119.75,187.44166564941406 M117.25,189.94166564941406 116.25,192.44166564941406 M113.25,195.44166564941406 112.75,195.94166564941406 M112.25,197.44166564941406 111.75,198.94166564941406 M111.75,199.94166564941406 111.25,201.94166564941406 M107.75,207.94166564941406 107.25,210.44166564941406 M109.25,216.44166564941406 109.75,217.94166564941406 M114.75,221.94166564941406 118.75,226.94166564941406 M121.25,227.44166564941406 123.75,227.44166564941406 M124.25,227.44166564941406 126.25,227.44166564941406 M130.75,225.44166564941406 132.75,225.44166564941406 M129.75,228.44166564941406 131.75,297.44166564941406 M127.75,250.94166564941406 119.75,244.44166564941406 M128.75,261.44166564941406 111.25,250.44166564941406 M127.25,272.44166564941406 103.75,256.44166564941406 M127.75,167.94166564941406 97.25,161.94166564941406 M97.25,161.94166564941406 88.25,184.94166564941406 M88.25,184.94166564941406 64.75,183.44166564941406"></path></g>
        </symbol>

        <symbol id="pair-slices">
          <g transform="translate(170)">
            <use xlink:href="#slice"></use>
            <!-- Mirrored slice to show symmetry -->
            <use xlink:href="#slice" transform="translate(260,0) scale(-1,1)"></use>
          </g>
        </symbol>
      </defs>

      <!-- Visible snowflake -->
      <g>
        <use xlink:href="#pair-slices" transform="rotate(30, 300, 300)"></use>
        <use xlink:href="#pair-slices" transform="rotate(90, 300, 300)"></use>
        <use xlink:href="#pair-slices" transform="rotate(150, 300, 300)"></use>
        <use xlink:href="#pair-slices" transform="rotate(210, 300, 300)"></use>
        <use xlink:href="#pair-slices" transform="rotate(270, 300, 300)"></use>
        <use xlink:href="#pair-slices" transform="rotate(330, 300, 300)"></use>
      </g>
    </svg>