<svg class="snowflake" viewBox="-20 0 640 600" xmlns="http://www.w3.org/2000/svg" xmlns:xlink="http://www.w3.org/1999/xlink" style="background: darkslateblue; color: white;" width="800px" height="800px">
      <defs>
        <path id="slice-shape" d="M130.1,300.5, 130.1,0, 0,75z"></path>

        <clipPath id="slice-clip-path">
          <use xlink:href="#slice-shape"></use>
        </clipPath>

        <symbol id="slice">
          <!-- Clipped slice content -->
          <g clip-path="url(#slice-clip-path)" id="target-group" stroke="currentColor" stroke-linecap="round" stroke-width="5"><path d=" M129.40833282470703,2.1916656494140625 129.40833282470703,2.1916656494140625 M129.40833282470703,2.1916656494140625 122.90833282470703,11.691665649414062 M122.90833282470703,11.691665649414062 128.40833282470703,18.191665649414062 M128.40833282470703,18.191665649414062 115.40833282470703,36.69166564941406 M116.90833282470703,35.19166564941406 115.40833282470703,37.69166564941406 M115.40833282470703,37.69166564941406 125.40833282470703,43.19166564941406 M126.40833282470703,44.19166564941406 100.40833282470703,68.69166564941406 M100.40833282470703,68.19166564941406 129.90833282470703,88.69166564941406 M128.40833282470703,87.69166564941406 82.90833282470703,112.69166564941406 M82.90833282470703,112.69166564941406 140.40833282470703,147.19166564941406 M131.40833282470703,0.1916656494140625 131.40833282470703,0.1916656494140625 M128.40833282470703,3.1916656494140625 126.90833282470703,296.69166564941406 M126.90833282470703,139.19166564941406 67.90833282470703,194.69166564941406 M67.90833282470703,192.19166564941406 139.40833282470703,167.19166564941406 M106.40833282470703,179.19166564941406 122.90833282470703,291.19166564941406 M122.90833282470703,291.19166564941406 122.90833282470703,291.19166564941406 M81.90833282470703,188.69166564941406 126.90833282470703,293.69166564941406 M88.40833282470703,230.69166564941406 91.40833282470703,211.19166564941406 M91.40833282470703,211.19166564941406 106.40833282470703,195.19166564941406 M106.40833282470703,195.19166564941406 128.90833282470703,201.19166564941406 M91.90833282470703,212.19166564941406 148.90833282470703,226.69166564941406 M124.40833282470703,220.19166564941406 97.40833282470703,253.19166564941406"></path></g>
        </symbol>

        <symbol id="pair-slices">
          <g transform="translate(170)">
            <use xlink:href="#slice"></use>
            <!-- Mirrored slice to show symmetry -->
            <use xlink:href="#slice" transform="translate(260,0) scale(-1,1)"></use>
          </g>
        </symbol>
      </defs>

      <!-- Visible snowflake -->
      <g>
        <use xlink:href="#pair-slices" transform="rotate(30, 300, 300)"></use>
        <use xlink:href="#pair-slices" transform="rotate(90, 300, 300)"></use>
        <use xlink:href="#pair-slices" transform="rotate(150, 300, 300)"></use>
        <use xlink:href="#pair-slices" transform="rotate(210, 300, 300)"></use>
        <use xlink:href="#pair-slices" transform="rotate(270, 300, 300)"></use>
        <use xlink:href="#pair-slices" transform="rotate(330, 300, 300)"></use>
      </g>
    </svg>